# xmcd CD database file
#
# Track frame offsets:
#	150
#	20881
#	43020
#	75027
#
# Disc length: 1228 seconds
#
# Revision: 0
# Processed by: cddbd v1.5PL3 Copyright (c) Steve Scherf et al.
# Submitted via: CDex 1.51
#
DISCID=2304ca04
DTITLE=The Students - ハトマメ　〜Say Hello To The World.〜
DYEAR=2004
DGENRE=JPop
TTITLE0=ハトマメ　〜Say Hello To The World.〜
TTITLE1=ハトマメ（仲見世ミックス）
TTITLE2=ハトマメ（Inst.）
TTITLE3=CD-Extra：ハトマメレコーディング風景
EXTD=YEAR: 2004
EXTT0=
EXTT1=
EXTT2=
EXTT3=
PLAYORDER=
